<svg id="visual" viewBox="0 0 900 600" width="900" height="600" xmlns="http://www.w3.org/2000/svg" xmlns:xlink="http://www.w3.org/1999/xlink" version="1.1"><rect x="0" y="0" width="900" height="600" fill="#e4e9f7"></rect><path d="M0 411L25 420.2C50 429.3 100 447.7 150 460.3C200 473 250 480 300 472.8C350 465.7 400 444.3 450 431C500 417.7 550 412.3 600 407.8C650 403.3 700 399.7 750 408.8C800 418 850 440 875 451L900 462L900 601L875 601C850 601 800 601 750 601C700 601 650 601 600 601C550 601 500 601 450 601C400 601 350 601 300 601C250 601 200 601 150 601C100 601 50 601 25 601L0 601Z" fill="#b9c2d0" stroke-linecap="round" stroke-linejoin="miter"></path></svg>