<svg id="visual" viewBox="0 0 900 600" width="900" height="600" xmlns="http://www.w3.org/2000/svg" xmlns:xlink="http://www.w3.org/1999/xlink" version="1.1"><rect x="0" y="0" width="900" height="600" fill="#e4e9f7"></rect><defs><linearGradient id="grad1_0" x1="33.3%" y1="0%" x2="100%" y2="100%"><stop offset="20%" stop-color="#c2c9dc" stop-opacity="1"></stop><stop offset="80%" stop-color="#c2c9dc" stop-opacity="1"></stop></linearGradient></defs><defs><linearGradient id="grad1_1" x1="33.3%" y1="0%" x2="100%" y2="100%"><stop offset="20%" stop-color="#c2c9dc" stop-opacity="1"></stop><stop offset="80%" stop-color="#d3d9e9" stop-opacity="1"></stop></linearGradient></defs><defs><linearGradient id="grad1_2" x1="33.3%" y1="0%" x2="100%" y2="100%"><stop offset="20%" stop-color="#e4e9f7" stop-opacity="1"></stop><stop offset="80%" stop-color="#d3d9e9" stop-opacity="1"></stop></linearGradient></defs><defs><linearGradient id="grad2_0" x1="0%" y1="0%" x2="66.7%" y2="100%"><stop offset="20%" stop-color="#c2c9dc" stop-opacity="1"></stop><stop offset="80%" stop-color="#c2c9dc" stop-opacity="1"></stop></linearGradient></defs><defs><linearGradient id="grad2_1" x1="0%" y1="0%" x2="66.7%" y2="100%"><stop offset="20%" stop-color="#d3d9e9" stop-opacity="1"></stop><stop offset="80%" stop-color="#c2c9dc" stop-opacity="1"></stop></linearGradient></defs><defs><linearGradient id="grad2_2" x1="0%" y1="0%" x2="66.7%" y2="100%"><stop offset="20%" stop-color="#d3d9e9" stop-opacity="1"></stop><stop offset="80%" stop-color="#e4e9f7" stop-opacity="1"></stop></linearGradient></defs><g transform="translate(900, 0)"><path d="M0 486.7C-38.6 468.5 -77.2 450.3 -117 436.6C-156.8 422.9 -197.9 413.7 -220.5 381.9C-243.1 350.1 -247.4 295.8 -262.3 262.3C-277.3 228.9 -303 216.2 -344.7 199C-386.3 181.8 -443.8 159.9 -470.2 126C-496.5 92 -491.6 46 -486.7 0L0 0Z" fill="#dbe1f0"></path><path d="M0 324.5C-25.7 312.4 -51.4 300.2 -78 291.1C-104.5 281.9 -131.9 275.8 -147 254.6C-162.1 233.4 -164.9 197.2 -174.9 174.9C-184.9 152.6 -202 144.2 -229.8 132.7C-257.5 121.2 -295.9 106.6 -313.4 84C-331 61.4 -327.7 30.7 -324.5 0L0 0Z" fill="#cad1e3"></path><path d="M0 162.2C-12.9 156.2 -25.7 150.1 -39 145.5C-52.3 141 -66 137.9 -73.5 127.3C-81 116.7 -82.5 98.6 -87.4 87.4C-92.4 76.3 -101 72.1 -114.9 66.3C-128.8 60.6 -147.9 53.3 -156.7 42C-165.5 30.7 -163.9 15.3 -162.2 0L0 0Z" fill="#c2c9dc"></path></g><g transform="translate(0, 600)"><path d="M0 -486.7C46.8 -492.6 93.7 -498.4 126 -470.2C158.3 -441.9 176.1 -379.6 198.5 -343.8C220.9 -308.1 248 -298.9 287.1 -287.1C326.1 -275.3 377.1 -260.9 400.1 -231C423.1 -201.1 418.1 -155.7 427.9 -114.7C437.7 -73.6 462.2 -36.8 486.7 0L0 0Z" fill="#dbe1f0"></path><path d="M0 -324.5C31.2 -328.4 62.4 -332.3 84 -313.4C105.5 -294.6 117.4 -253 132.3 -229.2C147.3 -205.4 165.4 -199.3 191.4 -191.4C217.4 -183.5 251.4 -173.9 266.7 -154C282.1 -134.1 278.8 -103.8 285.3 -76.4C291.8 -49.1 308.1 -24.5 324.5 0L0 0Z" fill="#cad1e3"></path><path d="M0 -162.2C15.6 -164.2 31.2 -166.1 42 -156.7C52.8 -147.3 58.7 -126.5 66.2 -114.6C73.6 -102.7 82.7 -99.6 95.7 -95.7C108.7 -91.8 125.7 -87 133.4 -77C141 -67 139.4 -51.9 142.6 -38.2C145.9 -24.5 154.1 -12.3 162.2 0L0 0Z" fill="#c2c9dc"></path></g></svg>